<svg width="270" height="41" viewBox="0 0 270 41" fill="none" xmlns="http://www.w3.org/2000/svg">
<path d="M40.4054 38.6447C40.1868 39.0334 39.6766 39.2035 39.2393 39.325L34.1128 40.7827C33.6512 40.9042 33.0924 41.0014 32.728 40.807C32.3636 40.5883 32.1692 40.0538 32.0477 39.6165C24.5889 11.7741 23.5685 5.79742 20.5559 5.79742C17.5432 5.79742 16.5228 11.7984 9.064 39.6165C8.94252 40.0781 8.74818 40.5883 8.38374 40.807C7.99501 41.0256 7.43619 40.9285 6.99887 40.7827L1.8482 39.325C1.41087 39.2035 0.900652 39.0334 0.68199 38.6447C0.487625 38.2803 0.560512 37.6972 0.68199 37.2599C8.28654 8.93152 12.5383 0.914062 20.5316 0.914062C28.5249 0.914062 32.7766 8.93152 40.4054 37.2599C40.5269 37.6972 40.5998 38.256 40.4054 38.6447Z" fill="#FDB913"/>
<path d="M44.9735 20.7369C44.9735 21.0528 44.9249 21.1742 44.7792 21.5144L44.5605 22.0975C44.439 22.4376 44.269 22.7777 43.9774 22.9478C43.6859 23.1179 43.2728 23.0936 42.9084 23.0207C29.1083 19.9595 15.0166 26.9809 9.13702 39.7604C8.91836 40.222 8.6025 40.9023 7.84933 40.9023C7.55778 40.9023 7.33912 40.878 6.97468 40.7565L1.82395 39.2988H1.79963C1.21653 39.1287 0.511963 38.91 0.511963 38.084C0.511963 37.7681 0.633437 37.4037 0.779212 37.0879C8.35955 20.8341 27.2618 13.2539 43.9288 19.6436C44.3418 19.838 44.9493 20.0809 44.9735 20.7369Z" fill="url(#paint0_linear_1168_3907)"/>
<path d="M123.365 28.8993C123.365 35.0942 120.377 40.9004 113.429 40.9004C110.805 40.9004 108.959 40.0015 107.72 38.7626L107.161 40.9004H103.784V10.2661H108.085V29.1666C108.085 33.005 109.008 37.1592 113.599 37.1349C118.045 37.1106 119.041 32.7863 119.041 29.1666C119.041 25.5468 118.069 21.2468 113.599 21.2468C112.7 21.2468 111.68 21.4412 110.878 21.757V18.283C111.607 18.0158 113.04 17.5299 114.595 17.5299C120.669 17.5056 123.365 23.5304 123.365 28.8993ZM84.4222 40.9004H88.7222V10.2661H84.4222V40.9004ZM161.313 17.5056C159.734 17.5056 158.325 17.9915 157.596 18.2587V21.757C158.397 21.4412 159.442 21.2468 160.317 21.2468C164.762 21.2711 165.758 25.5711 165.758 29.1666C165.758 32.762 164.787 37.1106 160.317 37.1349C155.725 37.1592 154.802 33.005 154.802 29.1666V10.2661H150.502V40.9004H153.879L154.437 38.7626C155.676 40.0015 157.523 40.9004 160.147 40.9004C167.095 40.9004 170.083 35.0942 170.083 28.8993C170.107 23.5304 167.386 17.5056 161.313 17.5056ZM191.875 34.8513V26.8344C191.875 20.518 187.793 17.5299 183.104 17.5299C178.148 17.5299 174.65 20.761 174.65 20.761L176.691 23.7005C177.152 23.3361 179.63 21.4898 182.837 21.4898C185.582 21.4898 187.842 22.7531 187.842 26.9801V31.9603C187.842 35.7016 184.052 37.2807 181.501 37.2807C179.242 37.2807 177.565 36.3575 177.565 34.3654C177.565 30.9643 182.23 29.944 185.072 30.0897V26.8101C178.877 26.4943 173.338 29.0694 173.338 34.6326C173.338 38.4953 176.351 40.9004 180.845 40.9004C184.222 40.9004 187.137 39.5885 188.546 38.1795C189.299 40.123 191.389 40.9004 192.992 40.9004L193.842 37.7665C192.458 37.4507 191.875 36.8191 191.875 34.8513ZM145.133 34.8513V26.8344C145.133 20.518 141.051 17.5299 136.363 17.5299C131.407 17.5299 127.908 20.761 127.908 20.761L129.949 23.7005C130.411 23.3361 132.889 21.4898 136.096 21.4898C138.841 21.4898 141.1 22.7531 141.1 26.9801V31.9603C141.1 35.7016 137.31 37.2807 134.759 37.2807C132.5 37.2807 130.824 36.3575 130.824 34.3654C130.824 30.9643 135.488 29.944 138.331 30.0897V26.8101C132.136 26.4943 126.597 29.0694 126.597 34.6326C126.597 38.4953 129.609 40.9004 134.103 40.9004C137.48 40.9004 140.396 39.5885 141.805 38.1795C142.558 40.123 144.647 40.9004 146.25 40.9004L147.101 37.7665C145.716 37.4507 145.133 36.8191 145.133 34.8513ZM79.0532 34.8513V26.8344C79.0532 20.518 74.9718 17.5299 70.283 17.5299C65.327 17.5299 61.8287 20.761 61.8287 20.761L63.8694 23.7005C64.331 23.3361 66.809 21.4898 70.0158 21.4898C72.761 21.4898 75.0204 22.7531 75.0204 26.9801V31.9603C75.0204 35.7016 71.2305 37.2807 68.6796 37.2807C66.4203 37.2807 64.744 36.3575 64.744 34.3654C64.744 30.9643 69.4084 29.944 72.2508 30.0897V26.8101C66.0559 26.4943 60.5168 29.0694 60.5168 34.6326C60.5168 38.4953 63.5293 40.9004 68.0237 40.9004C71.4006 40.9004 74.3158 39.5885 75.7249 38.1795C76.478 40.123 78.5673 40.9004 80.1707 40.9004L81.021 37.7665C79.6362 37.4507 79.0532 36.8191 79.0532 34.8513ZM94.0912 40.9004H98.3912V18.2344H94.0912V40.9004ZM94.0912 14.5661H98.3912V10.2661H94.0912V14.5661Z" fill="black"/>
<path d="M218.305 26.1327L218.062 26.0598C219.447 25.6954 222.314 23.4115 222.314 19.937C222.314 15.6851 219.641 12.4536 213.761 12.4536H204.552V40.9051H214.198C222.435 40.9051 223.334 35.2683 223.334 32.8629C223.334 29.8015 221.415 27.1046 218.305 26.1327ZM214.198 38.7184H207.152V14.6646H212.984C215.243 14.6646 216.968 15.102 218.062 15.9523C219.179 16.8027 219.738 18.1148 219.738 19.8884C219.738 21.6621 219.204 22.8769 218.135 23.7516C217.065 24.6263 215.51 25.1122 213.542 25.1365H209.655V27.2989H214.369C218.378 27.2989 220.759 29.3885 220.759 32.8872C220.759 36.3859 218.305 38.7184 214.198 38.7184Z" fill="black"/>
<path d="M264.365 26.1327L264.122 26.0598C265.507 25.6954 268.374 23.4115 268.374 19.937C268.374 15.6851 265.702 12.4536 259.822 12.4536H250.613V40.9051H260.259C268.496 40.9051 269.395 35.2683 269.395 32.8629C269.37 29.8015 267.451 27.1046 264.365 26.1327ZM260.235 38.7184H253.189V14.6646H259.02C261.28 14.6646 263.005 15.102 264.098 15.9523C265.216 16.8027 265.774 18.1148 265.774 19.8884C265.774 21.6621 265.24 22.8769 264.171 23.7516C263.102 24.6263 261.547 25.1122 259.579 25.1365H255.691V27.2989H260.405C264.414 27.2989 266.795 29.3885 266.795 32.8872C266.795 36.3859 264.365 38.7184 260.235 38.7184Z" fill="black"/>
<path d="M227.267 40.9043V39.0091L227.291 38.9848C232.928 33.4694 242.525 26.6663 242.525 20.1305C242.525 16.5103 240.12 14.3479 236.111 14.3479C233.365 14.3479 230.425 15.9272 228.579 17.4093L228.53 17.4579L227.291 15.587L227.339 15.5384C229.866 13.3031 233.292 11.9668 236.524 11.9668C240.436 11.9668 244.979 14.1049 244.979 20.0819C244.979 26.5449 238.516 32.0359 230.984 38.6933H244.979V40.88H227.267V40.9043Z" fill="black"/>
<defs>
<linearGradient id="paint0_linear_1168_3907" x1="0.524062" y1="29.1598" x2="44.9638" y2="29.1598" gradientUnits="userSpaceOnUse">
<stop offset="0.3" stop-color="#FDB913"/>
<stop offset="0.75" stop-color="#F7941F"/>
</linearGradient>
</defs>
</svg>
