<?xml version="1.0" ?>
<!-- Uploaded to: SVG Repo, www.svgrepo.com, Generator: SVG Repo Mixer Tools -->
<svg width="800px" height="800px" viewBox="0 0 20 20" version="1.1" xmlns="http://www.w3.org/2000/svg">
<g id="layer1">
<path d="M 9.6894531 0 L 9.0703125 0.048828125 L 8.4550781 0.14453125 L 7.8535156 0.28710938 L 7.2617188 0.4765625 L 6.6855469 0.71289062 L 6.1308594 0.9921875 L 5.5976562 1.3125 L 5.09375 1.6738281 L 4.6191406 2.0742188 L 4.1757812 2.5078125 L 3.7675781 2.9785156 L 3.3964844 3.4765625 L 3.0664062 4.0039062 L 2.7792969 4.5507812 L 2.5332031 5.1230469 L 2.3320312 5.7109375 L 2.1777344 6.3125 L 2.109375 6.5195312 L 1.9980469 6.7050781 L 1.8496094 6.8652344 L 1.6679688 6.9882812 L 1.46875 7.0664062 L 1.1953125 7.1640625 L 0.93945312 7.3007812 L 0.70507812 7.4707031 L 0.5 7.671875 L 0.32617188 7.9003906 L 0.18554688 8.1542969 L 0.08203125 8.4257812 L 0.021484375 8.7070312 L 0 8.9960938 L 0 10.996094 L 0.01953125 11.28125 L 0.080078125 11.558594 L 0.18164062 11.828125 L 0.31640625 12.076172 L 0.49023438 12.306641 L 0.68945312 12.507812 L 0.91992188 12.679688 L 1.1679688 12.816406 L 1.4375 12.916016 L 1.7148438 12.976562 L 2 12.996094 L 2.1953125 12.976562 L 2.3828125 12.919922 L 2.5566406 12.828125 L 2.7070312 12.703125 L 2.8300781 12.552734 L 2.9257812 12.378906 L 2.9824219 12.193359 L 3 11.996094 L 3 7.9960938 L 3.0234375 7.4160156 L 3.0957031 6.84375 L 3.2128906 6.2753906 L 3.3789062 5.7226562 L 3.5898438 5.1835938 L 3.84375 4.6621094 L 4.1386719 4.1640625 L 4.4765625 3.6953125 L 4.8496094 3.2539062 L 5.2597656 2.84375 L 5.7011719 2.46875 L 6.1699219 2.1328125 L 6.6679688 1.8378906 L 7.1894531 1.5820312 L 7.7265625 1.3730469 L 8.28125 1.2089844 L 8.8457031 1.0878906 L 9.421875 1.0175781 L 10 0.99414062 L 10.578125 1.0175781 L 11.150391 1.0878906 L 11.71875 1.2089844 L 12.271484 1.3730469 L 12.810547 1.5820312 L 13.332031 1.8378906 L 13.830078 2.1328125 L 14.298828 2.46875 L 14.740234 2.84375 L 15.150391 3.2539062 L 15.523438 3.6953125 L 15.861328 4.1640625 L 16.15625 4.6621094 L 16.410156 5.1835938 L 16.621094 5.7226562 L 16.785156 6.2753906 L 16.904297 6.84375 L 16.974609 7.4160156 L 16.998047 7.9960938 L 16.998047 11.996094 L 16.976562 12.525391 L 16.90625 13.046875 L 16.791016 13.5625 L 16.630859 14.068359 L 16.427734 14.554688 L 16.181641 15.021484 L 15.896484 15.466797 L 15.572266 15.882812 L 15.210938 16.269531 L 14.820312 16.625 L 14.398438 16.943359 L 13.951172 17.222656 L 13.482422 17.460938 L 13.306641 17.521484 L 13.125 17.548828 L 12.941406 17.544922 L 12.763672 17.501953 L 12.59375 17.429688 L 12.439453 17.330078 L 12.230469 17.1875 L 11.998047 17.082031 L 11.751953 17.019531 L 11.5 16.998047 L 9.5 16.998047 L 9.2402344 17.021484 L 8.9863281 17.089844 L 8.75 17.199219 L 8.5371094 17.349609 L 8.3515625 17.533203 L 8.1992188 17.75 L 8.0917969 17.986328 L 8.0234375 18.238281 L 8 18.498047 L 8.0234375 18.759766 L 8.0917969 19.011719 L 8.1992188 19.248047 L 8.3515625 19.462891 L 8.5371094 19.648438 L 8.75 19.798828 L 8.9863281 19.908203 L 9.2402344 19.976562 L 9.5 20 L 11.5 20 L 11.748047 19.978516 L 11.988281 19.916016 L 12.214844 19.816406 L 12.421875 19.681641 L 12.605469 19.513672 L 12.759766 19.316406 L 12.875 19.097656 L 12.972656 18.919922 L 13.103516 18.769531 L 13.263672 18.646484 L 13.443359 18.558594 L 13.966797 18.339844 L 14.470703 18.076172 L 14.955078 17.775391 L 15.408203 17.435547 L 15.835938 17.058594 L 16.230469 16.650391 L 16.589844 16.210938 L 16.914062 15.744141 L 17.197266 15.25 L 17.441406 14.736328 L 17.642578 14.205078 L 17.800781 13.658203 L 17.873047 13.457031 L 17.986328 13.277344 L 18.134766 13.123047 L 18.314453 13.005859 L 18.513672 12.929688 L 18.789062 12.835938 L 19.046875 12.699219 L 19.283203 12.53125 L 19.494141 12.328125 L 19.669922 12.095703 L 19.8125 11.84375 L 19.914062 11.570312 L 19.978516 11.285156 L 20 10.996094 L 20 8.9960938 L 19.978516 8.7070312 L 19.917969 8.4257812 L 19.814453 8.1542969 L 19.673828 7.9003906 L 19.5 7.671875 L 19.292969 7.4707031 L 19.060547 7.3007812 L 18.804688 7.1640625 L 18.53125 7.0664062 L 18.332031 6.9882812 L 18.150391 6.8652344 L 18.001953 6.7050781 L 17.890625 6.5195312 L 17.820312 6.3125 L 17.667969 5.7109375 L 17.466797 5.1230469 L 17.220703 4.5507812 L 16.933594 4.0039062 L 16.601562 3.4765625 L 16.232422 2.9785156 L 15.824219 2.5078125 L 15.380859 2.0742188 L 14.90625 1.6738281 L 14.398438 1.3125 L 13.869141 0.9921875 L 13.314453 0.71289062 L 12.738281 0.4765625 L 12.146484 0.28710938 L 11.542969 0.14453125 L 10.929688 0.048828125 L 10.310547 0 L 9.6894531 0 z M 2 7.9960938 L 2 11.996094 L 1.8046875 11.976562 L 1.6171875 11.919922 L 1.4433594 11.828125 L 1.2929688 11.703125 L 1.1679688 11.552734 L 1.0761719 11.378906 L 1.0195312 11.191406 L 1 10.996094 L 1 8.9960938 L 1.0195312 8.8007812 L 1.0761719 8.6132812 L 1.1679688 8.4414062 L 1.2929688 8.2871094 L 1.4433594 8.1640625 L 1.6171875 8.0722656 L 1.8046875 8.015625 L 2 7.9960938 z M 18 7.9960938 L 18.195312 8.015625 L 18.380859 8.0722656 L 18.556641 8.1640625 L 18.707031 8.2871094 L 18.832031 8.4414062 L 18.923828 8.6132812 L 18.980469 8.8007812 L 19 8.9960938 L 19 10.996094 L 18.980469 11.191406 L 18.923828 11.378906 L 18.832031 11.552734 L 18.707031 11.703125 L 18.556641 11.828125 L 18.380859 11.919922 L 18.195312 11.976562 L 18 11.996094 L 18 7.9960938 z M 16.998047 15.603516 L 16.998047 15.644531 L 16.998047 15.603516 z M 9.5 17.998047 L 11.5 17.998047 L 11.640625 18.017578 L 11.769531 18.076172 L 11.878906 18.171875 L 11.955078 18.291016 L 11.994141 18.425781 L 11.994141 18.568359 L 11.955078 18.707031 L 11.878906 18.826172 L 11.769531 18.917969 L 11.640625 18.976562 L 11.5 19 L 9.5 19 L 9.359375 18.976562 L 9.2285156 18.917969 L 9.1210938 18.826172 L 9.0449219 18.707031 L 9.0039062 18.568359 L 9.0039062 18.425781 L 9.0449219 18.291016 L 9.1210938 18.171875 L 9.2285156 18.076172 L 9.359375 18.017578 L 9.5 17.998047 z " style="fill:#222222; fill-opacity:1; stroke:none; stroke-width:0px;"/>
</g>
</svg>