<?xml version="1.0" encoding="iso-8859-1"?>
<!-- Uploaded to: SVG Repo, www.svgrepo.com, Generator: SVG Repo Mixer Tools -->
<svg fill="#000000" height="800px" width="800px" version="1.1" id="Layer_1" xmlns="http://www.w3.org/2000/svg" xmlns:xlink="http://www.w3.org/1999/xlink" 
	 viewBox="0 0 275.214 275.214" xml:space="preserve">
<g>
	<g>
		<g>
			<path d="M273.799,250.321c-1.872-3.152-5.304-5.276-7.256-4.592c-0.06,0.024-0.116-0.008-0.184-0.032
				c2.052-3.628,0.356-8.808-2.452-11.6c-2.408-2.384-5.348-2.916-7.692-1.408c-0.036-0.02-0.124-0.14-0.1-0.32
				c0.88-6.632-2.08-9.08-3.924-9.952c-3.128-1.472-7.54-0.524-10.576,2.204c-0.02-0.068-0.036-0.14-0.04-0.2
				c-0.308-5.224-3.052-7.632-5.516-8.144c-2.696-0.568-5.42,0.844-7.276,3.728c-0.232-0.412-0.48-0.892-0.648-1.22
				c-0.36-0.7-0.676-1.308-0.948-1.66c-0.72-0.932-1.56-1.688-2.468-2.356v-159.7h4.052l1.768-1.768V42.673l-1.768-1.768h-17.268
				c0.136-0.272,0.228-0.564,0.228-0.888v-7.836c0-1.116-0.904-2.02-2.02-2.02h-6.964V12.953c0-1.116-0.904-2.02-2.02-2.02h-9.176
				c-1.116,0-2.02,0.904-2.02,2.02v27.06c0,0.324,0.092,0.616,0.228,0.888h-4.18c0.136-0.272,0.228-0.564,0.228-0.888v-7.568
				c0-0.884-0.564-1.632-1.356-1.908c0.064-0.192,0.096-0.4,0.096-0.616v-7.072c0-0.268-0.052-0.52-0.144-0.756
				c0.46-0.372,0.756-0.94,0.756-1.576v-7.568c0-1.116-0.904-2.02-2.02-2.02h-18.616c-1.116,0-2.02,0.904-2.02,2.02v27.06
				c0,0.324,0.092,0.616,0.228,0.888h-9.84c0.136-0.272,0.228-0.564,0.228-0.888v-17.36h4.632c1.116,0,2.02-0.904,2.02-2.02v-7.684
				c0-1.116-0.904-2.02-2.02-2.02h-22.4c-1.116,0-2.02,0.904-2.02,2.02v7.684c0,1.116,0.904,2.02,2.02,2.02h4.632v17.36
				c0,0.324,0.092,0.616,0.228,0.888h-16.14c1.44-0.708,2.788-1.536,3.932-2.6c1.556-1.456,2.78-3.22,3.652-5.252
				c0.868-2.028,1.312-4.288,1.312-6.72c0-2.436-0.444-4.684-1.32-6.68c-0.868-1.992-2.104-3.724-3.664-5.14
				c-1.552-1.4-3.384-2.484-5.452-3.228c-2.04-0.74-4.276-1.116-6.648-1.116c-2.368,0-4.604,0.376-6.652,1.116
				c-2.076,0.748-3.904,1.836-5.432,3.232c-1.544,1.412-2.768,3.136-3.644,5.132c-0.872,1.992-1.316,4.236-1.316,6.68
				c0,2.436,0.44,4.696,1.308,6.72c0.872,2.032,2.092,3.796,3.628,5.24c1.132,1.068,2.48,1.9,3.924,2.608H94.847
				c0.136-0.272,0.228-0.564,0.228-0.888v-27.06c0-1.116-0.904-2.02-2.02-2.02h-9.136c-1.116,0-2.02,0.904-2.02,2.02v7.168h-3.376
				v-7.152c0-1.116-0.904-2.02-2.02-2.02h-9.06c-1.116,0-2.02,0.904-2.02,2.02v27.06c0,0.324,0.092,0.616,0.228,0.888H44.299
				l-1.76,1.768v10.628l1.768,1.768h4.052v161.892c-0.112,0.064-0.248,0.08-0.332,0.188c-0.272,0.352-0.584,0.96-0.948,1.66
				c-0.168,0.328-0.416,0.808-0.648,1.216c-1.856-2.88-4.584-4.296-7.276-3.728c-2.468,0.512-5.208,2.92-5.516,8.136
				c-0.004,0.064-0.016,0.136-0.04,0.204c-3.036-2.728-7.44-3.692-10.576-2.204c-1.844,0.868-4.804,3.32-3.924,9.948
				c0.016,0.136-0.028,0.236,0.008,0.292c-2.5-1.468-5.42-0.928-7.804,1.436c-2.804,2.788-4.5,7.96-2.444,11.596
				c-0.06,0.024-0.116,0.04-0.132,0.04c-2.02-0.716-5.44,1.424-7.312,4.576c-1.324,2.224-3.616,8.092,3.672,14.48l0.668,0.252
				h36.316h38.892h113.296h36.752h38.452l0.668-0.252C277.415,258.413,275.123,252.545,273.799,250.321z M200.731,12.957v19.224
				h8.984v7.836h-18.156v-27.06H200.731z M164.519,12.957h0.004h18.616v7.568h-10.056v2.332h9.444v7.072h-9.444v2.524h10.7v7.568
				h-19.264V12.957z M135.351,20.641v-7.684h22.4v7.684h-6.652v19.38h-9.096v-19.38H135.351z M105.167,36.829
				c-1.34-1.264-2.392-2.788-3.156-4.568c-0.764-1.784-1.144-3.76-1.144-5.924c0-2.168,0.38-4.124,1.144-5.868
				c0.764-1.748,1.816-3.228,3.156-4.452c1.336-1.22,2.924-2.164,4.756-2.824c1.836-0.664,3.824-0.996,5.964-0.996
				c2.144,0,4.128,0.332,5.964,0.996c1.836,0.66,3.428,1.604,4.78,2.824c1.348,1.224,2.408,2.708,3.168,4.452
				c0.764,1.748,1.148,3.7,1.148,5.868c0,2.164-0.384,4.14-1.148,5.924c-0.76,1.78-1.82,3.304-3.168,4.568
				c-1.352,1.26-2.944,2.232-4.78,2.924c-1.832,0.688-3.82,1.032-5.964,1.032c-2.14,0-4.128-0.344-5.964-1.032
				C108.091,39.065,106.503,38.089,105.167,36.829z M67.443,12.957h0.004h9.06v9.172h7.416v-9.172h9.136v27.06h-9.1v-10.28h-7.416
				v10.28h-9.1V12.957z M82.171,40.909h-3.832c0.136-0.272,0.228-0.568,0.228-0.888v-8.26h3.376v8.26
				C81.943,40.345,82.035,40.637,82.171,40.909z M46.071,51.537v-7.096h180.932v7.096H46.071z M158.527,167.189h-43.976
				l-1.768,1.768v82.892H51.895V55.069h169.288v196.78h-60.888v-82.892L158.527,167.189z M156.759,170.725v80.364h-40.44v-80.364
				H156.759z M40.307,253.973v9.092H6.139c-5.612-5.112-4.292-9.524-2.984-11.72c1.632-2.744,4.252-3.908,4.896-3.704
				c0.82,0.288,1.968-0.056,2.536-0.744c0.488-0.588,0.528-1.352,0.108-2.04c-1.66-2.716-0.284-7.016,2.044-9.328
				c1.016-1.008,3.06-2.496,5.412-1.092c0.612,0.364,1.348,0.34,1.964-0.06c0.724-0.472,1.112-1.36,0.996-2.256
				c-0.528-3.98,0.464-6.78,2.792-7.876c2.572-1.232,6.392-0.212,8.848,2.364c0.364,0.384,0.904,0.512,1.408,0.328
				c0.86-0.312,1.452-1.476,1.508-2.376c0.2-3.428,1.7-5.84,3.916-6.296c2.064-0.44,4.26,0.988,5.664,3.724
				c0.228,0.44,0.64,0.7,1.104,0.7c0.784,0,1.316-0.696,2.016-1.98v31.496h-6.292L40.307,253.973z M229.239,261.525H43.835v-5.792
				h185.404V261.525z M269.075,263.057h-36.3v-9.092l-1.768-1.768h-6.292v-34.74c0.296,0.288,0.604,0.556,0.868,0.896
				c0.192,0.248,0.452,0.776,0.748,1.348c1,1.952,1.568,2.964,2.54,2.964c0.464,0,0.876-0.264,1.104-0.7
				c1.404-2.736,3.608-4.152,5.664-3.724c2.212,0.46,3.712,2.872,3.916,6.304c0.056,0.896,0.648,2.06,1.508,2.376
				c0.504,0.184,1.04,0.056,1.412-0.332c2.452-2.572,6.268-3.592,8.844-2.36c2.328,1.096,3.32,3.896,2.792,7.88
				c-0.12,0.896,0.272,1.784,0.996,2.256c0.616,0.4,1.352,0.432,1.968,0.056c2.336-1.392,4.392,0.084,5.404,1.096
				c2.328,2.312,3.704,6.616,2.044,9.336c-0.42,0.684-0.38,1.448,0.108,2.036c0.572,0.692,1.728,1.036,2.532,0.744
				c0.688-0.212,3.268,0.968,4.9,3.708C273.367,253.537,274.687,257.953,269.075,263.057z"/>
			<path d="M66.267,118.365l-1.512,1.512v36.412l1.512,1.512h31.716l1.512-1.512v-36.412l-1.512-1.512H66.267z M96.467,154.781
				H67.779v-33.388h28.688V154.781z"/>
			<path d="M94.003,152.165L94.003,152.165l0.504-0.504v-23.832c0-0.28-0.228-0.504-0.504-0.504s-0.504,0.228-0.504,0.504v10.14
				H70.755v-12.952h8.636h0.9h6.652c0.28,0,0.504-0.228,0.504-0.504s-0.228-0.504-0.504-0.504h-6.652h-0.9h-9.14l-0.504,0.504
				v27.148l0.504,0.504H94.003z M70.755,138.981h22.744v12.176H70.755V138.981z"/>
			<path d="M149.387,239.661l1.008-1.008v-56.928l-1.008-1.008h-25.692l-1.008,1.008v56.928l1.008,1.008H149.387z M124.703,182.733
				h23.672v54.912h-23.672V182.733z"/>
			<path d="M128.379,194.165l-0.76,0.76v5.376l0.76,0.76h16.316l0.76-0.76v-5.376l-0.76-0.76H128.379z M143.935,199.545h-14.796
				v-3.86h14.796V199.545z"/>
			<path d="M119.347,210.917c0.476,0,0.956-0.136,1.384-0.416c0.564-0.372,0.948-0.944,1.084-1.604
				c0.132-0.66,0.004-1.332-0.368-1.892c-0.768-1.164-2.332-1.488-3.496-0.72c-1.164,0.764-1.484,2.336-0.716,3.496
				C117.719,210.517,118.527,210.917,119.347,210.917z M118.507,207.129c0.684-0.452,1.636-0.268,2.096,0.432
				c0.224,0.336,0.3,0.736,0.22,1.132s-0.308,0.736-0.652,0.964c-0.684,0.448-1.632,0.268-2.096-0.432
				C117.615,208.529,117.811,207.585,118.507,207.129z"/>
			<path d="M176.799,118.757l-1.512,1.512v36.412l1.512,1.512h31.716l1.512-1.512v-36.412l-1.512-1.512H176.799z M207.003,155.169
				h-28.688v-33.388h28.688V155.169z"/>
			<path d="M204.535,152.557v-0.004l0.504-0.504v-23.828c0-0.28-0.228-0.504-0.504-0.504c-0.28,0-0.504,0.228-0.504,0.504v10.14
				h-22.748v-12.952h8.64h0.9h6.652c0.28,0,0.504-0.228,0.504-0.504s-0.228-0.504-0.504-0.504h-6.652h-0.9h-9.144l-0.504,0.504
				v27.148l0.504,0.504H204.535z M181.283,139.365h22.748v12.176h-22.748V139.365z"/>
			<path d="M122.335,118.757l-1.512,1.512v36.412l1.512,1.512h31.716l1.512-1.512v-36.412l-1.512-1.512H122.335z M152.539,155.169
				h-28.688v-33.388h28.688V155.169z"/>
			<path d="M150.071,152.557v-0.004l0.504-0.504v-23.828c0-0.28-0.228-0.504-0.504-0.504c-0.28,0-0.504,0.228-0.504,0.504v10.14
				h-22.744v-12.952h8.636h0.9h6.652c0.28,0,0.504-0.228,0.504-0.504s-0.228-0.504-0.504-0.504h-6.652h-0.9h-9.14l-0.504,0.504
				v27.148l0.504,0.504H150.071z M126.823,139.365h22.744v12.176h-22.744V139.365z"/>
			<path d="M66.267,177.897l-1.512,1.512v36.408l1.512,1.512h31.716l1.512-1.512v-36.408l-1.512-1.512H66.267z M96.467,214.305
				H67.779v-33.384h28.688V214.305z"/>
			<path d="M94.003,211.693L94.003,211.693l0.504-0.504v-23.832c0-0.28-0.228-0.504-0.504-0.504s-0.504,0.228-0.504,0.504v10.14
				H70.755v-12.952h8.636h0.9h6.652c0.28,0,0.504-0.228,0.504-0.504c0-0.28-0.228-0.504-0.504-0.504h-6.652h-0.9h-9.14l-0.504,0.504
				v27.148l0.504,0.504H94.003z M70.755,198.505h22.744v12.176H70.755V198.505z"/>
			<path d="M208.079,214.645l1.512-1.512v-36.412l-1.512-1.512h-31.716l-1.512,1.512v36.412l1.512,1.512H208.079z M177.879,178.233
				h28.688v33.388h-28.688V178.233z"/>
			<path d="M204.099,184.165c-0.28,0-0.504,0.228-0.504,0.504v10.14h-22.744v-12.948h8.636h0.9h6.656
				c0.28,0,0.504-0.228,0.504-0.504c0-0.28-0.228-0.504-0.504-0.504h-6.656h-0.9h-9.14l-0.504,0.504v27.144l0.504,0.504h23.752
				l0.504-0.504v-23.832C204.603,184.389,204.379,184.165,204.099,184.165z M203.595,207.993h-22.744v-12.176h22.744V207.993z"/>
			<path d="M97.875,106.117l1.512-1.512V68.189l-1.512-1.512H66.159l-1.512,1.512v36.412l1.512,1.516H97.875z M67.671,69.705h28.688
				v33.388H67.671V69.705z"/>
			<path d="M93.895,75.637c-0.28,0-0.504,0.228-0.504,0.504v10.14H70.643V73.329h8.64h0.9h6.652c0.28,0,0.504-0.228,0.504-0.504
				s-0.228-0.504-0.504-0.504h-6.652h-0.9h-9.144l-0.504,0.504v27.148l0.504,0.504h23.756l0.504-0.504V76.141
				C94.399,75.861,94.171,75.637,93.895,75.637z M93.391,99.469H70.643V87.293h22.748V99.469z"/>
			<path d="M208.403,106.505l1.512-1.512V68.581l-1.512-1.512h-31.712l-1.512,1.512v36.412l1.512,1.512H208.403z M178.203,70.093
				h28.684v33.388h-28.684V70.093z"/>
			<path d="M204.423,76.025c-0.28,0-0.504,0.228-0.504,0.504v10.14h-22.744V73.717h8.636h0.9h6.656c0.28,0,0.504-0.228,0.504-0.504
				c0-0.28-0.228-0.504-0.504-0.504h-6.656h-0.9h-9.14l-0.504,0.504v27.148l0.504,0.504h23.752l0.504-0.504V76.533
				C204.927,76.253,204.703,76.025,204.423,76.025z M203.919,99.853h-22.744V87.677h22.744V99.853z"/>
			<path d="M153.943,106.505l1.512-1.512V68.581l-1.512-1.512h-31.716l-1.512,1.512v36.412l1.512,1.512H153.943z M123.743,70.093
				h28.688v33.388h-28.688V70.093z"/>
			<path d="M149.963,76.025c-0.28,0-0.504,0.228-0.504,0.504v10.14h-22.748V73.717h8.64h0.9h6.652c0.28,0,0.504-0.228,0.504-0.504
				c0-0.28-0.228-0.504-0.504-0.504h-6.652h-0.9h-9.144l-0.504,0.504v27.148l0.504,0.504h23.756l0.504-0.504V76.533
				C150.471,76.253,150.243,76.025,149.963,76.025z M149.463,99.853h-22.748V87.677h22.748V99.853z"/>
			<path d="M112.047,30.693c0.472,0.536,1.04,0.948,1.7,1.244c0.66,0.296,1.376,0.44,2.14,0.44c0.764,0,1.472-0.148,2.124-0.44
				s1.216-0.708,1.7-1.244c0.484-0.536,0.86-1.172,1.128-1.912c0.268-0.736,0.4-1.556,0.4-2.444c0-0.868-0.132-1.664-0.4-2.392
				c-0.268-0.724-0.644-1.336-1.128-1.832c-0.484-0.496-1.052-0.888-1.7-1.164c-0.652-0.28-1.356-0.42-2.124-0.42
				c-0.76,0-1.48,0.14-2.14,0.42c-0.66,0.28-1.228,0.668-1.7,1.164c-0.468,0.496-0.84,1.108-1.108,1.832
				c-0.268,0.728-0.404,1.524-0.404,2.392c0,0.892,0.136,1.708,0.404,2.444C111.203,29.517,111.575,30.157,112.047,30.693z
				 M112.835,24.645c0.168-0.464,0.396-0.844,0.68-1.144c0.28-0.292,0.612-0.52,1.016-0.692c0.412-0.176,0.864-0.264,1.356-0.264
				s0.924,0.084,1.32,0.256c0.412,0.176,0.756,0.412,1.056,0.72c0.288,0.296,0.508,0.664,0.68,1.128
				c0.18,0.492,0.276,1.064,0.276,1.688c0,0.656-0.092,1.248-0.28,1.756c-0.18,0.496-0.416,0.904-0.728,1.248
				c-0.296,0.328-0.632,0.576-1.028,0.752c-0.396,0.18-0.816,0.264-1.296,0.264c-0.484,0-0.916-0.088-1.316-0.264
				c-0.404-0.18-0.732-0.416-1.012-0.736c-0.3-0.344-0.544-0.768-0.72-1.256c-0.192-0.524-0.284-1.116-0.284-1.764
				C112.555,25.717,112.647,25.145,112.835,24.645z"/>
		</g>
	</g>
</g>
</svg>