<?xml version="1.0" encoding="iso-8859-1"?>
<!-- Uploaded to: SVG Repo, www.svgrepo.com, Generator: SVG Repo Mixer Tools -->
<svg fill="#000000" height="800px" width="800px" version="1.1" id="Layer_1" xmlns="http://www.w3.org/2000/svg" xmlns:xlink="http://www.w3.org/1999/xlink" 
	 viewBox="0 0 500.004 500.004" xml:space="preserve">
<g>
	<g>
		<path d="M385.302,132.704l-25.988,62.04c-4.912,11.3-17.008,20.084-28.752,20.084H287.11v7.788c0,6.46-1.396,11.74-7.856,11.74
			h-54.692c-6.46,0-15.572-5.276-15.572-11.74v-7.788h-36.212c-11.752,0-24.796-8.784-29.7-20.084l-26.824-61.8
			c-7.768,6.448-12.728,16.216-12.728,27.084v285.24c0,18.084,13.732,33.008,31.308,34.932c1.776,11.2,11.472,19.804,23.164,19.804
			c11.608,0,21.26-7.844,23.132-19.56h141.632c1.868,11.716,11.516,19.56,23.124,19.56c11.696,0,19.492-8.604,21.26-19.808
			c17.544-1.96,29.332-16.872,29.332-34.924v-285.24C396.482,149,393.266,139.152,385.302,132.704z M357.29,429.66H146.446
			c-6.464,0-11.72-5.288-11.72-11.716c0-6.428,5.256-11.716,11.72-11.716H357.29c6.46,0,11.72,5.288,11.72,11.716
			C369.01,424.372,363.754,429.66,357.29,429.66z M357.29,359.352H146.446c-6.464,0-11.72-5.292-11.72-11.72
			c0-6.428,5.256-11.716,11.72-11.716H357.29c6.46,0,11.72,5.288,11.72,11.716C369.01,354.06,363.754,359.352,357.29,359.352z
			 M357.29,289.044H146.446c-6.464,0-11.72-5.292-11.72-11.716c0-6.428,5.256-11.72,11.72-11.72H357.29
			c6.46,0,11.72,5.288,11.72,11.72C369.01,283.752,363.754,289.044,357.29,289.044z"/>
	</g>
</g>
<g>
	<g>
		<path d="M365.126,124.992h-70.204V11.696c0-6.464-1.52-11.696-7.984-11.696H216.93c-6.46,0-11.844,5.236-11.844,11.696v113.296
			H138.69c-2.916,0-5.736,0.336-8.448,1.008l27.176,62.56c2.436,5.62,9.76,10.648,15.364,10.648h157.784
			c5.596,0,12.92-5.056,15.364-10.68l27.224-62.672C370.57,125.244,367.894,124.992,365.126,124.992z M271.49,124.992h-42.968
			V23.436h42.968V124.992z"/>
	</g>
</g>
</svg>