<svg width="347" height="43" viewBox="0 0 347 43" fill="none" xmlns="http://www.w3.org/2000/svg">
<path d="M192.947 33.3112C192.8 33.5723 192.457 33.6866 192.163 33.7682L188.719 34.7476C188.409 34.8292 188.033 34.8945 187.788 34.764C187.544 34.617 187.413 34.2579 187.331 33.9641C182.32 15.2575 181.634 11.2419 179.61 11.2419C177.586 11.2419 176.901 15.2738 171.889 33.9641C171.808 34.2743 171.677 34.617 171.432 34.764C171.171 34.9109 170.796 34.8456 170.502 34.7476L167.041 33.7682C166.747 33.6866 166.405 33.5723 166.258 33.3112C166.127 33.0663 166.176 32.6746 166.258 32.3807C171.367 13.3477 174.24 7.96094 179.594 7.96094C184.948 7.96094 187.821 13.3477 192.947 32.3807C193.028 32.6746 193.077 33.05 192.947 33.3112Z" fill="#FDB913"/>
<path d="M196.016 21.2783C196.016 21.4905 195.984 21.5721 195.886 21.8006L195.739 22.1924C195.657 22.4209 195.543 22.6495 195.347 22.7637C195.151 22.878 194.874 22.8617 194.629 22.8127C185.357 20.7559 175.889 25.4734 171.939 34.0596C171.792 34.3698 171.579 34.8268 171.073 34.8268C170.877 34.8268 170.731 34.8105 170.486 34.7289L167.025 33.7495C166.617 33.6352 166.16 33.4883 166.16 32.9333C166.16 32.7211 166.242 32.4762 166.339 32.264C171.433 21.3436 184.132 16.2506 195.314 20.5437C195.592 20.6743 196.016 20.8375 196.016 21.2783Z" fill="url(#paint0_linear_1169_7776)"/>
<path d="M248.686 26.7643C248.686 30.9265 246.678 34.8275 242.01 34.8275C240.247 34.8275 239.006 34.2236 238.174 33.3911L237.798 34.8275H235.513V14.2451H238.402V26.9438C238.402 29.5228 239.023 32.3139 242.108 32.2975C245.095 32.2812 245.764 29.3759 245.764 26.9438C245.764 24.5118 245.111 21.6228 242.108 21.6228C241.504 21.6228 240.818 21.7534 240.279 21.9656V19.6315C240.769 19.4519 241.732 19.1255 242.777 19.1255C246.874 19.1092 248.686 23.1571 248.686 26.7643ZM222.521 34.8275H225.41V14.2451H222.521V34.8275ZM274.181 19.1092C273.12 19.1092 272.174 19.4356 271.684 19.6151V21.9656C272.223 21.7534 272.925 21.6228 273.512 21.6228C276.499 21.6391 277.168 24.5281 277.168 26.9438C277.168 29.3595 276.515 32.2812 273.512 32.2975C270.427 32.3139 269.807 29.5228 269.807 26.9438V14.2451H266.918V34.8275H269.187L269.562 33.3911C270.395 34.2236 271.635 34.8275 273.398 34.8275C278.066 34.8275 280.074 30.9265 280.074 26.7643C280.09 23.1571 278.278 19.1092 274.181 19.1092ZM294.715 30.7633V25.3769C294.715 21.1331 291.973 19.1255 288.823 19.1255C285.493 19.1255 283.142 21.2963 283.142 21.2963L284.513 23.2713C284.824 23.0265 286.489 21.786 288.643 21.786C290.488 21.786 292.006 22.6348 292.006 25.4748V28.8209C292.006 31.3345 289.459 32.3955 287.745 32.3955C286.227 32.3955 285.101 31.7752 285.101 30.4368C285.101 28.1517 288.235 27.4662 290.145 27.5641V25.3606C285.983 25.1484 282.261 26.8786 282.261 30.6164C282.261 33.2116 284.285 34.8275 287.305 34.8275C289.573 34.8275 291.532 33.9461 292.479 32.9994C292.985 34.3052 294.389 34.8275 295.466 34.8275L296.037 32.7219C295.107 32.5097 294.715 32.0854 294.715 30.7633ZM263.311 30.7633V25.3769C263.311 21.1331 260.568 19.1255 257.418 19.1255C254.088 19.1255 251.738 21.2963 251.738 21.2963L253.109 23.2713C253.419 23.0265 255.084 21.786 257.239 21.786C259.083 21.786 260.601 22.6348 260.601 25.4748V28.8209C260.601 31.3345 258.055 32.3955 256.341 32.3955C254.823 32.3955 253.697 31.7752 253.697 30.4368C253.697 28.1517 256.831 27.4662 258.74 27.5641V25.3606C254.578 25.1484 250.856 26.8786 250.856 30.6164C250.856 33.2116 252.88 34.8275 255.9 34.8275C258.169 34.8275 260.128 33.9461 261.074 32.9994C261.58 34.3052 262.984 34.8275 264.061 34.8275L264.633 32.7219C263.702 32.5097 263.311 32.0854 263.311 30.7633ZM218.913 30.7633V25.3769C218.913 21.1331 216.171 19.1255 213.021 19.1255C209.691 19.1255 207.341 21.2963 207.341 21.2963L208.712 23.2713C209.022 23.0265 210.687 21.786 212.841 21.786C214.686 21.786 216.204 22.6348 216.204 25.4748V28.8209C216.204 31.3345 213.657 32.3955 211.944 32.3955C210.426 32.3955 209.299 31.7752 209.299 30.4368C209.299 28.1517 212.433 27.4662 214.343 27.5641V25.3606C210.181 25.1484 206.459 26.8786 206.459 30.6164C206.459 33.2116 208.483 34.8275 211.503 34.8275C213.772 34.8275 215.73 33.9461 216.677 32.9994C217.183 34.3052 218.587 34.8275 219.664 34.8275L220.235 32.7219C219.305 32.5097 218.913 32.0854 218.913 30.7633ZM229.017 34.8275H231.906V19.5988H229.017V34.8275ZM229.017 17.1342H231.906V14.2451H229.017V17.1342Z" fill="black"/>
<path d="M312.489 24.9074L312.326 24.8584C313.256 24.6136 315.183 23.0791 315.183 20.7447C315.183 17.8879 313.387 15.7168 309.437 15.7168H303.25V34.8326H309.73C315.264 34.8326 315.868 31.0454 315.868 29.4293C315.852 27.3724 314.562 25.5604 312.489 24.9074ZM309.714 33.3634H304.98V17.2023H308.898C310.416 17.2023 311.575 17.4962 312.31 18.0675C313.061 18.6389 313.436 19.5204 313.436 20.7121C313.436 21.9037 313.077 22.72 312.359 23.3076C311.64 23.8953 310.596 24.2218 309.273 24.2381H306.661V25.691H309.828C312.522 25.691 314.122 27.0949 314.122 29.4456C314.122 31.7963 312.489 33.3634 309.714 33.3634Z" fill="black"/>
<path d="M343.42 24.9074L343.256 24.8584C344.187 24.6136 346.113 23.0791 346.113 20.7447C346.113 17.8879 344.318 15.7168 340.367 15.7168H334.18V34.8326H340.661C346.195 34.8326 346.799 31.0454 346.799 29.4293C346.783 27.3724 345.493 25.5604 343.42 24.9074ZM340.661 33.3634H335.927V17.2023H339.845C341.363 17.2023 342.522 17.4962 343.256 18.0675C344.007 18.6389 344.383 19.5204 344.383 20.7121C344.383 21.9037 344.024 22.72 343.305 23.3076C342.587 23.8953 341.542 24.2218 340.22 24.2381H337.608V25.691H340.775C343.469 25.691 345.068 27.0949 345.068 29.4456C345.068 31.7963 343.42 33.3634 340.661 33.3634Z" fill="black"/>
<path d="M318.511 34.831V33.5577L318.527 33.5414C322.314 29.8357 328.763 25.2649 328.763 20.8737C328.763 18.4413 327.146 16.9885 324.453 16.9885C322.608 16.9885 320.633 18.0495 319.392 19.0453L319.36 19.078L318.527 17.821L318.56 17.7884C320.257 16.2865 322.559 15.3887 324.73 15.3887C327.359 15.3887 330.411 16.8252 330.411 20.841C330.411 25.1833 326.069 28.8726 321.008 33.3455H330.411V34.8147H318.511V34.831Z" fill="black"/>
<path d="M152.99 7.95898H152.5V34.8273H152.99V7.95898Z" fill="black"/>
<path d="M97.8442 18.4506L97.7623 18.418L97.4675 19.7571L97.5003 19.7898C97.6477 19.9531 97.8606 20.0511 98.1226 20.1164C98.3847 20.1654 98.8268 20.198 99.4492 20.198H102.856V18.5976H99.4492C98.6631 18.5976 98.1226 18.5486 97.8442 18.4506Z" fill="black"/>
<path d="M101.332 16.0869H99.3669V17.8673H101.332V16.0869Z" fill="black"/>
<path d="M109.32 13.4727C108.976 13.6032 108.534 13.7175 107.994 13.7991C107.454 13.8807 106.979 13.9297 106.553 13.9297C106.03 13.9297 105.44 13.8481 104.769 13.6848C104.425 13.6032 104.213 13.5706 104.114 13.5706C103.934 13.5706 103.738 13.6522 103.525 13.8481C103.312 14.0276 103.181 14.2398 103.132 14.452L103.067 14.9253C102.969 15.5456 102.903 15.9373 102.87 16.0679L102.854 16.1495L104.065 16.5576L104.098 16.5086C104.213 16.3454 104.294 16.0842 104.344 15.7251C104.36 15.5946 104.409 15.2518 104.409 15.2518L104.589 15.3008C104.736 15.3334 104.916 15.366 105.146 15.3987C105.506 15.4477 105.964 15.464 106.455 15.464C107.028 15.464 107.617 15.415 108.223 15.3008C108.845 15.1865 109.303 15.0396 109.663 14.8274L109.712 14.7948L109.401 13.4727H109.32Z" fill="black"/>
<path d="M9.02764 21.731V20.8169L7.06318 21.1596L7.03044 21.3229C6.9977 21.5188 6.96496 21.7473 6.96496 21.9922C6.96496 22.5145 7.01407 23.1348 7.09592 23.8531C7.17777 24.555 7.24325 24.9467 7.24325 25.061C7.29237 25.4201 7.30874 25.6487 7.32511 25.7793C6.86673 25.9098 6.13006 25.9751 5.13146 25.9751H4.23108C3.70723 25.9751 3.29797 25.9098 3.03604 25.7793C2.79048 25.665 2.61041 25.4528 2.49581 25.1426C2.36485 24.7998 2.31574 24.2938 2.31574 23.6245V20.8332C2.31574 19.5273 2.34848 18.352 2.43033 17.3236C2.49581 16.3115 2.57767 15.5606 2.67589 15.1362L2.725 14.8913L0.858764 14.5322L0.776912 14.7118C0.596836 15.1199 0.482243 15.7565 0.449502 16.6706C0.416761 17.5521 0.400391 19.0049 0.400391 21.0127V23.7878C0.400391 24.8325 0.531355 25.6813 0.760541 26.3016C1.0061 26.9546 1.41536 27.4279 1.95559 27.7381C2.47944 28.0319 3.18337 28.1788 4.05101 28.1788H4.68946C5.81902 28.1788 6.7194 28.0972 7.37422 27.934C8.06178 27.7707 8.53652 27.5096 8.83119 27.1504C9.12586 26.7913 9.25682 26.3343 9.25682 25.7793C9.25682 25.5018 9.22408 24.9304 9.14223 24.0326C9.07675 22.8573 9.02764 22.0901 9.02764 21.731Z" fill="black"/>
<path d="M20.1929 21.731V20.8169L18.2285 21.1596L18.1957 21.3229C18.163 21.5188 18.1302 21.7473 18.1302 21.9922C18.1302 22.5145 18.1793 23.1348 18.2612 23.8531C18.3594 24.555 18.4085 24.9467 18.4085 25.061C18.4576 25.4201 18.474 25.6487 18.4904 25.7793C18.032 25.9098 17.2953 25.9751 16.2967 25.9751H15.3964C14.8725 25.9751 14.4633 25.9098 14.2013 25.7793C13.9558 25.665 13.7757 25.4528 13.6611 25.1426C13.5301 24.7998 13.481 24.2938 13.481 23.6245V20.8332C13.481 19.5273 13.5138 18.352 13.5956 17.3236C13.6611 16.3115 13.7429 15.5606 13.8412 15.1362L13.8903 14.8913L12.024 14.5322L11.9422 14.7118C11.7621 15.1199 11.6475 15.7565 11.6148 16.6706C11.582 17.5521 11.5657 19.0049 11.5657 21.0127V23.7878C11.5657 24.8325 11.6966 25.6813 11.9258 26.3016C12.1878 26.9546 12.5806 27.4279 13.1209 27.7381C13.6447 28.0319 14.3487 28.1788 15.2163 28.1788H15.8384C16.9679 28.1788 17.8683 28.0972 18.5231 27.934C19.2107 27.7707 19.6854 27.5096 19.9801 27.1504C20.2748 26.7913 20.4057 26.3343 20.4057 25.7793C20.4057 25.5018 20.373 24.9304 20.2911 24.0326C20.242 22.8573 20.1929 22.0901 20.1929 21.731Z" fill="black"/>
<path d="M50.5817 24.9326C50.3853 24.9326 50.1397 24.9652 49.8286 25.0305C49.4847 25.1122 49.3374 25.1448 49.2883 25.1448H49.2719H49.2555C48.2404 25.3897 47.4054 25.5202 46.7504 25.5202C46.0955 25.5202 45.6043 25.3733 45.2932 25.0958C44.9821 24.8183 44.8348 24.4755 44.8348 24.0511C44.8348 23.6267 44.9494 23.2676 45.195 22.9248C45.4406 22.582 45.768 22.3045 46.1774 22.0923C46.5867 21.8965 47.0615 21.7822 47.5527 21.7822C47.7492 21.7822 47.9129 21.7985 48.0439 21.8475C48.1749 21.8965 48.3222 21.9781 48.486 22.0923L48.7152 22.2719L49.5339 20.6232L49.452 20.509C49.2719 20.2641 49.0427 20.0519 48.7643 19.8724C48.4696 19.6928 48.1421 19.5949 47.8147 19.5949C46.9797 19.5949 46.1774 19.7907 45.4242 20.1825C44.671 20.5743 44.0489 21.1456 43.5904 21.8638C43.1156 22.582 42.8864 23.4145 42.8864 24.3286C42.8864 24.7204 42.9519 25.0795 43.0665 25.4386C43.132 25.6182 43.2138 25.7977 43.3121 25.961C42.9191 25.9773 42.4443 25.9773 41.8549 25.9773C41.3473 25.9773 40.938 25.8957 40.676 25.7324C40.414 25.5692 40.2339 25.3244 40.1193 24.9652C40.0047 24.5898 39.9392 24.0348 39.9392 23.3492V18.5012C39.9392 17.4891 39.9065 16.6893 39.8573 16.118C39.7918 15.514 39.71 15.0569 39.5626 14.7305L39.4644 14.502L37.7125 15.3181L37.7452 15.514C37.9253 16.4118 38.0072 17.6034 38.0072 19.0562V22.1903C38.0072 22.8595 37.8926 23.3656 37.647 23.692C37.4177 24.0185 36.9757 24.2633 36.3535 24.4103C35.6822 24.5735 34.6998 24.6388 33.39 24.6388C32.2275 24.6388 31.3433 24.6061 30.7703 24.5245C30.2136 24.4592 29.7551 24.345 29.444 24.1981L29.2148 24.1001L28.5108 25.863L28.6745 25.9773C28.9856 26.1732 29.4113 26.3364 29.9843 26.4507C30.541 26.5649 31.4416 26.6629 32.6695 26.7445C32.9806 26.7608 33.2262 26.8424 33.3408 26.9567C33.4554 27.071 33.5209 27.2179 33.5209 27.3974V27.7566C33.5209 28.2626 33.1116 28.687 32.3093 29.0298C31.4252 29.4052 30.099 29.5848 28.3634 29.5848C26.022 29.5848 24.8759 28.8992 24.8759 27.4954C24.8759 27.1036 24.9087 26.7119 24.9742 26.3527C25.0397 25.9773 25.1543 25.5202 25.3016 24.9979C25.3999 24.5572 25.4981 24.1817 25.5636 23.8716C25.6291 23.5614 25.6618 23.2513 25.6618 22.9411C25.6618 22.7616 25.6618 22.631 25.6455 22.5331L25.6127 22.3045L23.9099 22.4188L23.8935 22.631C23.8772 22.8922 23.828 23.2023 23.7462 23.5451C23.6479 23.9042 23.5661 24.2633 23.4678 24.6225C23.2877 25.2917 23.1404 25.8467 23.0421 26.3201C22.9439 26.7935 22.8948 27.2832 22.8948 27.7566C22.8948 30.4173 24.6467 31.7721 28.1014 31.7721C30.4755 31.7721 32.3093 31.413 33.5373 30.6784C34.8144 29.9276 35.453 28.8502 35.453 27.4791V27.2995C35.453 27.1199 35.4366 26.9567 35.4038 26.7935C36.1898 26.7445 36.8283 26.6139 37.3359 26.4017C37.7452 26.2385 38.0727 26.0263 38.351 25.7488C38.5311 26.418 38.8586 26.973 39.317 27.3811C39.9065 27.9035 40.6924 28.1646 41.6911 28.1646H42.1168C43.3612 28.1646 44.4254 28.0993 45.3096 27.9688C46.2101 27.8382 47.2744 27.6586 48.486 27.4138C49.5339 27.1852 50.287 27.0383 50.7127 26.9894L50.8928 26.9567L51.122 25.0632L50.9583 24.9979C50.8928 24.9489 50.7455 24.9326 50.5817 24.9326Z" fill="black"/>
<path d="M91.3455 21.7334V20.8193L89.3809 21.1621L89.3481 21.3253C89.3154 21.5212 89.2826 21.7497 89.2826 21.9945C89.2826 22.5169 89.3318 23.1371 89.4136 23.8553C89.4955 24.5572 89.561 24.9489 89.561 25.0631C89.6101 25.4222 89.6264 25.6508 89.6428 25.7813C89.1844 25.9119 88.4477 25.9772 87.449 25.9772H86.5485C86.1065 25.9772 85.7463 25.9282 85.4843 25.8303C85.2387 25.7324 85.075 25.5691 84.944 25.308C84.8131 25.0305 84.7312 24.6224 84.7312 24.0675V21.6191L82.7993 21.9782V24.7857C82.7993 25.3243 82.7174 25.6997 82.5537 25.9446C82.4064 26.1567 82.1608 26.2547 81.7842 26.2547C81.3749 26.2547 81.0802 26.1404 80.8838 25.8956C80.7528 25.716 80.5891 25.3243 80.5891 24.4266V22.2394L78.6572 22.5985V24.1491C78.6572 24.8346 78.5262 25.3243 78.2479 25.5855C77.9859 25.8466 77.462 25.9772 76.7416 25.9772C76.1686 25.9772 75.7593 25.8466 75.4973 25.6018C75.2354 25.357 75.1044 24.9326 75.1044 24.345C75.1044 23.8063 75.1372 23.2514 75.2354 22.6801L75.2681 22.4189L73.4017 22.3047L73.369 22.5169C73.1234 23.8063 72.7141 24.7204 72.1574 25.2264C71.6172 25.7324 70.7986 25.9935 69.7344 25.9935H68.9976C67.1803 25.9935 65.8706 25.9609 65.1174 25.8793C64.3807 25.814 63.8404 25.6997 63.513 25.5528L63.2674 25.4549L62.5634 27.3156L62.7271 27.4299C63.4639 27.9359 65.0028 28.1807 67.4423 28.197C67.475 28.4419 67.475 28.7194 67.475 29.0295C67.475 29.5192 67.0657 29.9272 66.2307 30.2373C65.3303 30.5801 64.0369 30.7597 62.3997 30.7597C60.0585 30.7597 58.9124 30.0741 58.9124 28.6704C58.9124 28.2787 58.9452 27.8869 59.0107 27.5278C59.0761 27.1524 59.1907 26.6954 59.3381 26.1731C59.4363 25.7324 59.5346 25.357 59.5837 25.0468C59.6492 24.7367 59.6819 24.4266 59.6819 24.1165C59.6819 23.9369 59.6819 23.8063 59.6655 23.7084L59.6328 23.4799L57.9301 23.5941L57.9137 23.8063C57.8973 24.0675 57.8482 24.3776 57.7664 24.7204C57.6845 25.0795 57.5863 25.4386 57.4881 25.7977C57.308 26.4505 57.1606 27.0218 57.0787 27.4952C56.9805 27.9685 56.9314 28.4582 56.9314 28.9315C56.9314 31.5921 58.6832 32.9468 62.1377 32.9468C64.4626 32.9468 66.2635 32.5878 67.4914 31.8696C68.7684 31.1187 69.4069 30.0741 69.4069 28.752C69.4069 28.5725 69.3906 28.3929 69.3578 28.197H69.5215C70.6185 28.197 71.5353 28.0175 72.272 27.6584C72.8123 27.3972 73.2544 27.0218 73.5654 26.5485C73.7128 26.9565 73.9747 27.2993 74.3186 27.5768C74.8425 28.0012 75.5956 28.197 76.5452 28.197C77.7894 28.197 78.7063 27.8869 79.2957 27.283C79.4758 27.6094 79.7213 27.8706 80.0488 28.0665C80.4908 28.3276 81.0311 28.4745 81.686 28.4745C82.259 28.4745 82.7829 28.3439 83.1922 28.0991C83.5033 27.9196 83.7489 27.6584 83.9453 27.3483C84.1418 27.5931 84.4201 27.789 84.7639 27.9196C85.2224 28.0991 85.8281 28.197 86.5321 28.197H86.9906C88.1202 28.197 89.0207 28.1154 89.6756 27.9522C90.3632 27.789 90.838 27.5278 91.1327 27.1687C91.4274 26.8096 91.5584 26.3526 91.5584 25.7977C91.5584 25.5202 91.5256 24.9489 91.4438 24.0512C91.3946 22.876 91.3455 22.0925 91.3455 21.7334Z" fill="black"/>
<path d="M96.0919 23.529V14.5186L93.9804 14.8777L94.0786 18.8932C94.1441 20.9989 94.1604 22.5006 94.1604 23.3331C94.1604 25.3083 94.0459 26.7284 93.8003 27.5772L93.7349 27.7894L95.3226 28.4097L95.4208 28.1975C95.65 27.6751 95.83 27.0549 95.9282 26.3693C96.0264 25.6837 96.0756 24.7206 96.0919 23.529Z" fill="black"/>
<path d="M101.479 21.7627L99.367 22.3505L99.3833 22.5627C99.6289 24.7015 99.7435 26.2035 99.7435 27.0198C99.7435 27.7056 99.6453 28.277 99.4652 28.6852C99.2851 29.0933 98.9249 29.4525 98.4173 29.779C97.877 30.1219 97.0584 30.4648 95.9614 30.8239L95.7158 30.9056L96.5345 32.8811L96.7473 32.8158C97.9589 32.4566 98.9413 31.9831 99.6617 31.4117C100.398 30.8403 100.922 30.1219 101.233 29.2892C101.545 28.4729 101.692 27.4607 101.692 26.3015C101.692 25.9423 101.659 24.9137 101.561 23.1341L101.479 21.7627Z" fill="black"/>
<path d="M105.588 17.422C105.653 19.0382 105.67 21.0136 105.67 23.3318C105.67 25.3072 105.555 26.7275 105.31 27.5764L105.244 27.7887L106.832 28.409L106.93 28.1968C107.159 27.6744 107.34 27.054 107.438 26.3683C107.536 25.6827 107.585 24.7195 107.585 23.5277V16.8506L105.555 17.2097L105.588 17.422Z" fill="black"/>
<path d="M134.536 28.1623H134.732C135.862 28.1623 136.762 28.0806 137.417 27.9174C138.105 27.7542 138.58 27.493 138.875 27.1339C139.169 26.7748 139.3 26.3177 139.3 25.7627C139.3 25.4852 139.268 24.9139 139.186 24.0161C139.104 22.8572 139.055 22.09 139.055 21.7145V20.8004L137.09 21.1432L137.057 21.3064C137.024 21.5023 136.992 21.7308 136.992 21.9757C136.992 22.498 137.041 23.1183 137.123 23.8366C137.204 24.5385 137.27 24.9302 137.27 25.0445C137.319 25.4036 137.335 25.6321 137.352 25.7627C136.893 25.8933 136.157 25.9586 135.158 25.9586H134.257C133.553 25.9586 133.046 25.8117 132.767 25.5342C132.489 25.2567 132.342 24.718 132.342 23.9508V21.6982L130.409 22.0573V24.1467C130.409 24.6691 130.344 25.0608 130.213 25.3057C130.082 25.5342 129.853 25.6974 129.509 25.7954C129.132 25.9096 128.543 25.9586 127.773 25.9586H126.791C126.07 25.9586 125.546 25.7627 125.252 25.3873C124.941 24.9955 124.777 24.2936 124.777 23.3305V19.0375C124.777 18.0744 124.793 17.2909 124.826 16.7196C124.859 16.1646 124.924 15.6585 125.039 15.2341L125.104 14.9893L123.352 14.5322L123.254 14.7118C123.09 15.0219 122.992 15.4463 122.927 16.034C122.878 16.589 122.845 17.5194 122.861 18.7763L122.943 28.8315C122.943 29.109 122.779 29.3702 122.468 29.5987C122.108 29.8599 121.6 30.0721 120.945 30.2353C120.274 30.3986 119.521 30.4639 118.686 30.4639C117.572 30.4639 116.737 30.268 116.213 29.8925C115.706 29.5334 115.477 29.0274 115.477 28.3745C115.477 27.999 115.509 27.6236 115.575 27.2481C115.64 26.8727 115.755 26.4483 115.902 25.9586C116.017 25.5342 116.099 25.1588 116.148 24.8649C116.213 24.5548 116.246 24.261 116.246 23.9835C116.246 23.8202 116.246 23.6897 116.23 23.5917L116.197 23.3632L114.511 23.4774L114.494 23.6897C114.478 23.9182 114.429 24.212 114.347 24.5548C114.265 24.9139 114.167 25.2567 114.068 25.5995C113.888 26.2198 113.741 26.7748 113.643 27.2318C113.544 27.7052 113.495 28.1786 113.495 28.652C113.495 29.9252 113.905 30.9209 114.74 31.6228C115.558 32.3084 116.786 32.6675 118.424 32.6675C120.389 32.6675 121.944 32.3247 123.058 31.6228C124.204 30.9046 124.793 29.9089 124.793 28.652V27.7052C124.924 27.8031 125.088 27.8848 125.268 27.9501C125.661 28.097 126.169 28.1786 126.807 28.1786H127.708C128.723 28.1786 129.558 28.048 130.164 27.8195C130.639 27.6236 130.999 27.3624 131.261 27.0196C131.474 27.3624 131.785 27.6236 132.178 27.8031C132.702 28.048 133.406 28.1786 134.274 28.1786L134.536 28.1623Z" fill="black"/>
<path d="M134.402 30.7926C134.124 30.8579 133.911 30.9559 133.78 31.1192L133.747 31.1519L134.042 32.491L134.124 32.4584C134.402 32.3604 134.943 32.3114 135.713 32.3114H139.119V30.7109H135.713C135.107 30.7109 134.681 30.7436 134.402 30.7926Z" fill="black"/>
<path d="M137.611 33.0449H135.646V34.8253H137.611V33.0449Z" fill="black"/>
<path d="M132.027 17.9775H129.72V20.1H132.027V17.9775Z" fill="black"/>
<path d="M90.7869 17.0801H88.4795V19.2025H90.7869V17.0801Z" fill="black"/>
<path d="M18.3755 30.6309H16.0681V32.7533H18.3755V30.6309Z" fill="black"/>
<path d="M7.20995 30.6309H4.90259V32.7533H7.20995V30.6309Z" fill="black"/>
<defs>
<linearGradient id="paint0_linear_1169_7776" x1="166.155" y1="26.9374" x2="196.013" y2="26.9374" gradientUnits="userSpaceOnUse">
<stop offset="0.3" stop-color="#FDB913"/>
<stop offset="0.75" stop-color="#F7941F"/>
</linearGradient>
</defs>
</svg>
